<?xml version="1.0" standalone="no"?><svg width="210" height="210" xmlns="http://www.w3.org/2000/svg" xmlns:xlink="http://www.w3.org/1999/xlink"><style>body { font-family: sans-serif; padding: 0px; margin: 0px; }line.bg { stroke: rgba(3, 148, 172, 0.7); stroke-width: 1px; }circle.bg { fill: rgba(100, 220, 240, 0.7); }line.bg-sub { stroke: rgba(140, 240, 240, 0.5); stroke-width: 1px; }rect, path, circle { fill: none; stroke-width: 2px; stroke-linejoin: round; }pattern line { vector-effect: non-scaling-stroke; }.zoomed-out pattern line { vector-effect: none; }text { stroke-width: 0px; font-family: sans-serif; }text tspan { vector-effect: non-scaling-stroke; }.ui-dark { background: rgb(51, 51, 51) none repeat scroll 0% 0%; }.ui-dark line.bg { stroke: rgba(172, 232, 242, 0.57); stroke-width: 1px; }.ui-dark circle.bg { fill: rgba(100, 220, 240, 0.3); }.ui-dark line.bg-sub { stroke: rgba(140, 240, 240, 0.1); stroke-width: 1px; }rect.marquee { fill: rgba(234, 255, 231, 0.3); stroke: rgb(98, 137, 95); stroke-width: 1px; stroke-dasharray: 4px; vector-effect: non-scaling-stroke; }rect.highlight { fill: blue; opacity: 0.5; }</style><g transform="translate(-215, -155)"><defs><pattern id="pattern_bg" viewBox="0 0 60 60" width="0.04054054054054054" height="0.045112781954887216" patternTransform="scale(0.5 0.5) translate(739 665)"><line class="bg" x1="0" y1="0" x2="60" y2="0"></line><line class="bg" x1="0" y1="0" y2="60" x2="0"></line><line class="bg-sub" x1="0" y1="15" x2="60" y2="15"></line><line class="bg-sub" y1="0" x1="15" y2="60" x2="15"></line><line class="bg-sub" x1="0" y1="30" x2="60" y2="30"></line><line class="bg-sub" y1="0" x1="30" y2="60" x2="30"></line><line class="bg-sub" x1="0" y1="45" x2="60" y2="45"></line><line class="bg-sub" y1="0" x1="45" y2="60" x2="45"></line></pattern></defs><g class="bg"><rect x="-739" y="-665" width="2960" height="2660" style="fill: url(&quot;#pattern_bg&quot;);"></rect></g>null<rect x="300" y="240" class="u" style="stroke: rgb(41, 173, 255); fill: rgba(0, 0, 0, 0); stroke-width: 2px;" width="60" height="60"></rect><rect x="360" y="210" class="u" style="stroke: rgb(41, 173, 255); fill: rgba(0, 0, 0, 0); stroke-width: 2px;" width="30" height="30"></rect><rect x="360" y="300" class="u" style="stroke: rgb(41, 173, 255); fill: rgba(0, 0, 0, 0); stroke-width: 2px;" width="30" height="30"></rect><rect x="270" y="300" class="u" style="stroke: rgb(41, 173, 255); fill: rgba(0, 0, 0, 0); stroke-width: 2px;" width="30" height="30"></rect><rect x="270" y="210" class="u" style="stroke: rgb(41, 173, 255); fill: rgba(0, 0, 0, 0); stroke-width: 2px;" width="30" height="30"></rect><path d="M 315 255 L 360 210" class="u" stroke="rgb(41, 173, 255)" style="fill: rgba(0, 0, 0, 0); stroke-width: 2px;"></path><path d="M 315 255 L 360 300" class="u" stroke="rgb(41, 173, 255)" style="fill: rgba(0, 0, 0, 0); stroke-width: 2px;"></path><path d="M 315 255 L 270 210" class="u" stroke="rgb(41, 173, 255)" style="fill: rgba(0, 0, 0, 0); stroke-width: 2px;"></path><path d="M 315 255 L 270 300" class="u" stroke="rgb(41, 173, 255)" style="fill: rgba(0, 0, 0, 0); stroke-width: 2px;"></path><circle cx="315" cy="255" class="u" style="stroke: rgb(255, 163, 0); fill: rgba(0, 0, 0, 0); stroke-width: 1px;" r="65"></circle><path d="M 315 255 L 360 255 L 360 210 Z" class="u" stroke="rgb(0, 228, 54)" style="fill: rgba(0, 0, 0, 0); stroke-width: 1px;"></path><path d="M 315 255 L 360 210" class="u" stroke="rgb(126, 37, 83)" style="fill: rgba(0, 0, 0, 0); stroke-width: 3px;"></path></g></svg>